/* XPM */
static char *_578398799018[] = {
/* columns rows colors chars-per-pixel */
"64 64 238 2 ",
"   c #541E14",
".  c #4F1F0F",
"X  c #4C2618",
"o  c #542314",
"O  c #5B2216",
"+  c #55241C",
"@  c #5B241B",
"#  c #542919",
"$  c #5B291C",
"%  c #582917",
"&  c #642A1D",
"*  c #62261B",
"=  c #782C1D",
"-  c #6D311F",
";  c #552A22",
":  c #5C2C24",
">  c #5B2923",
",  c #5D3223",
"<  c #5B3427",
"1  c #632E23",
"2  c #6B2D22",
"3  c #662F2A",
"4  c #732D26",
"5  c #643324",
"6  c #6A3324",
"7  c #65342A",
"8  c #6B352B",
"9  c #663B2C",
"0  c #6C3B2B",
"q  c #6A3C26",
"w  c #733325",
"e  c #74352A",
"r  c #7C342A",
"t  c #733C2D",
"y  c #7C3C2C",
"u  c #783626",
"i  c #673C31",
"p  c #6C3B31",
"a  c #733C32",
"s  c #7C3D33",
"d  c #783F38",
"f  c #6B412E",
"g  c #69412C",
"h  c #7B422E",
"j  c #76432D",
"k  c #6C4133",
"l  c #694639",
"z  c #754333",
"x  c #7C4433",
"c  c #7C4935",
"v  c #744439",
"b  c #7C453B",
"n  c #754A3C",
"m  c #7C4A3C",
"M  c #754933",
"N  c #7D513E",
"B  c #7C4C41",
"V  c #7E4742",
"C  c #7C5143",
"Z  c #7C5349",
"A  c #775345",
"S  c #83352B",
"D  c #833B2C",
"F  c #8A3C2E",
"G  c #843B26",
"H  c #853D31",
"J  c #8C3D32",
"K  c #83412D",
"L  c #8C422D",
"P  c #824434",
"I  c #8B4335",
"U  c #824936",
"Y  c #8C4935",
"T  c #83453B",
"R  c #89463A",
"E  c #834B3B",
"W  c #8B4B3B",
"Q  c #914534",
"!  c #924D3D",
"~  c #994B3D",
"^  c #974837",
"/  c #8C523D",
"(  c #8B503A",
")  c #93523E",
"_  c #9C543E",
"`  c #925036",
"'  c #A0533F",
"]  c #824741",
"[  c #834D42",
"{  c #8A4B42",
"}  c #884741",
"|  c #9B4D41",
" . c #934D41",
".. c #855245",
"X. c #8C5244",
"o. c #8D5843",
"O. c #83544A",
"+. c #8C5449",
"@. c #83594C",
"#. c #8D5C4C",
"$. c #945443",
"%. c #9B5444",
"&. c #955945",
"*. c #9B5945",
"=. c #93554A",
"-. c #9C564A",
";. c #945C4C",
":. c #9C5B4A",
">. c #8C5D51",
",. c #835D50",
"<. c #955D50",
"1. c #9B5E53",
"2. c #A25545",
"3. c #A35A45",
"4. c #A35649",
"5. c #A35B4A",
"6. c #AA5B4C",
"7. c #A95547",
"8. c #A45C54",
"9. c #A75C51",
"0. c #A04E42",
"q. c #93614E",
"w. c #9B614F",
"e. c #8D6253",
"r. c #8D6559",
"t. c #8E6A5B",
"y. c #876051",
"u. c #956353",
"i. c #9B6454",
"p. c #956855",
"a. c #9B6A56",
"s. c #93655A",
"d. c #9C6559",
"f. c #956A5C",
"g. c #9B6A5B",
"h. c #9B715B",
"j. c #A4624E",
"k. c #AC644E",
"l. c #A36046",
"z. c #A36354",
"x. c #AB6353",
"c. c #A2655B",
"v. c #A36C5A",
"b. c #AC6D5C",
"n. c #A56A55",
"m. c #B26354",
"M. c #B16D5C",
"N. c #AB735D",
"B. c #A4735D",
"V. c #B3745F",
"C. c #B2614E",
"Z. c #976D61",
"A. c #9A7F7C",
"S. c #947060",
"D. c #AC6E62",
"F. c #A26E61",
"G. c #A57263",
"H. c #AC7362",
"J. c #AD7965",
"K. c #AD7D6A",
"L. c #A77767",
"P. c #B47464",
"I. c #B37966",
"U. c #BA7966",
"Y. c #B47B6A",
"T. c #BB7B6B",
"R. c #BA7467",
"E. c #A17E76",
"W. c #B16E68",
"Q. c #C17D68",
"!. c #958476",
"~. c #9C8376",
"^. c #96847B",
"/. c #9C857B",
"(. c #958A7B",
"). c #9C8A7D",
"_. c #8E8A7E",
"`. c #BB816C",
"'. c #B6816B",
"]. c #A3857C",
"[. c #A9847D",
"{. c #A28A7E",
"}. c #A5857A",
"|. c #C08270",
" X c #9C8683",
".X c #958B83",
"XX c #9C8B84",
"oX c #9D8C89",
"OX c #978682",
"+X c #9A9283",
"@X c #9E918B",
"#X c #9F9890",
"$X c #A28683",
"%X c #AA8681",
"&X c #A28B84",
"*X c #A98B83",
"=X c #A28788",
"-X c #A28C8A",
";X c #A98C89",
":X c #AA868B",
">X c #A39284",
",X c #AE9287",
"<X c #A3928B",
"1X c #AB948C",
"2X c #AD9A8D",
"3X c #A79C8C",
"4X c #B3948C",
"5X c #B9958D",
"6X c #B39A8D",
"7X c #BA9A8E",
"8X c #A49592",
"9X c #AB9593",
"0X c #A59A95",
"qX c #AC9B94",
"wX c #AC9C9A",
"eX c #A69B99",
"rX c #B39593",
"tX c #B39C93",
"yX c #BA9C93",
"uX c #B29D9B",
"iX c #BA9E9A",
"pX c #B59697",
"aX c #ABA195",
"sX c #ADA19B",
"dX c #A6A298",
"fX c #B3A195",
"gX c #BCA097",
"hX c #B3A29B",
"jX c #BAA29B",
"kX c #B5A89D",
"lX c #B69CA0",
"zX c #B4A3A0",
"xX c #BAA3A1",
"cX c #B9ACA6",
"vX c #ACA4A1",
"bX c #C39D96",
"nX c #C2A29B",
"mX c #C1A4A0",
/* pixels */
"2.%. .) ` &.7XeX$.&.&.&./ ! 3.3.%.2.5.6.` o.4XqX*.%.5.6._ $.*.%.4.%.` ` *.;.5XqX*.$.&.:.W ) w.*._ l.6.k.W X.6XfX&.*.4.j.*.&.*.) ",
"*.&.X.$.*.;.4X0X7.7.| %.! $.5.5.X.&.5.j.) ..7XeX*.4.5.5.*.$.*.*.%.*./ ) *.;.,X1X6.*.%.*.! $.4.3.) ) *.j.X.o.6X9X%.2.6.6.%.$.%.%.",
"j b b y W [ jXcX6.5.U c q g 9 q c c y x x m yXuX*.%.I H P P P I a c h K U ..nXcXm.j.W x 0 0 0 8 c M K x x b iXuX*.) W P h x P P ",
"c U b P { B jXzXC.k.Y x t z 7 0 c x t x E Z yX0Xq.o.U x c c c c b c U P W C gXhXk.z.U n 0 k 0 0 b c h x c c tXuX;./ U P h c U U ",
"x P W R a p 6XaX*.:.x x z v a z y x x x c n 7XaXW U ! W P x U W x x W W a k tXqX7.4.D U z v a s s b P x x n 2XuXT W  .! I P W W ",
"b b ....p l 1XhX=.=.U m b V b d m m V B B A ,XqX[ E +.+.U b X.{ b b o...p l 1XaX&.;.E B B B v k ] B ] n n C 1XwXb m X...m n [ o.",
";X&X[.*X/. XhXtX).{.).XX^./. X^.[.].].{.{.{.kXhX>XXX/./.^.).+X-X*X[.}.[.].-XfX9X{.*X/.{. X{./.~.E.].%X%X].[.kXcX{.{.].~.~.).-X*X",
".X@X@X+X.X@XwXlX$XoX=X-XoX X-X X.XoXoXoX X XhXhX X-X-X=XoX=X-XpX.X<X-XXXXX<X8XhXoX=X X&X=X$XoX X-X.X=X@XoX;XhXlX.XXXoXXXXXXX<X1X",
"w.i.N.U.V.U.U.I.J.J.P.b.b.L.4XhXV.V.I.T.Y.Y.Y.'.P.P.I.N.N.L.4XuXo.W X.) _ _ *.) %./ ) ` $.&.rXiX .Y ` L G G y y F K J K P U 6XwX",
"a.B.G.H.N.J.J.Y.K.H.H.b.H.L.7X0XR.R.R.R.T.U.P.V.Y.K.I.P.N.G.4XwXW $.*.*.%.%.%.*.%.$.2.) &.=.7XtX~ ^ J Q Q I F D H x J K I P pXuX",
"n.M.1.z.U.U.v.c.q.q.u.;.<.e.rXwXN.N.u.u.u.e.a.h.>.;.<.<.i.e.tXwX;.$.c x X.$.x x j 0 s y c n fXsXP U 5 1 # $ % 5 # # $ & 6 8 iXhX",
"M.N.i.i.I.I.a.d.;.;.u.i.i.,.yXhXV.P.w.i.d.u.g.g.q.u.i.1.i.>.yXwX%.*.I I -.%.I P k g x v M v aX#XK ! & 1 > @ $ & X # 5 5 5 7 0X0X",
"n.v.o...g.v.#.s.p.e.o...#.y.gXuXI.H.$.+.g.g.p.q.p.u.u.s.u.#.rX2X;.o.0 q E N f f c p s e b b yXjX~ W * & 7 7 & $ 1 1 4 2 6 8 tXkX",
"J.v.@...v.G.s.s.f.r.,.@.y.r.yXhXY.J.<.>.d.d.Z.g.t.t.t.s.s.r.6X2X1.X.0 5 m [ z k B l p i v O.6XyX%.W & 1 : 3 1 5 1 < 3 < 7 p &XqX",
"].{.).).)././././.$X&X&X}.~.fXhX{.{.&X).XX).).~.[.$X$X/.}.~.hXhX].].{.&X-X{./.~./.(.{.XX/.].aXuX).{./.).^.).^.).].XX&X&X/./.kXsX",
";X XoXoX X&X&X XoXoX.XXX&X-XwXwX&XXXXXXX XoXoX-X X XoXoXoXXXuXhX;X XoXXX XXX-XXX$XXX=XXX.X&X0XxX-XXX&X$X X XXXoX&X.XXXXXXX*XuXuX",
"*.4._ ' %.;.4XaXh K K K Q L ^ ^ F L K Y K X.5XuX&.&.:.%.x.x.P E *.:._ %.%.<.2XeX$.&._ *.3.3.k.x.7.3.2.*.*.-.7XuX-.&.*.%.x.x.P c ",
"&.:.*.*.*.#.yXsXI F D D F J ^ ^ F L P W K E ,X9X:.%.2.%.x.6.H T *.:.%.2.%.;.5XwX4.%.%.2.7.6.m.m.%.:.*.&.{ =.2XwX2.2.%.3.x.x.P P ",
"M c h h P n rXwXy s 6 5 5 1 & & w 6 2 w 2 p 4XdX*.&.W U T U x U x c M h P c 4X0XX.( c c z c b x W E P W x E 2XeX%.:.U U U U h m ",
"h x x P U b rX9XH y 6 5 $ $ & & 6 6 e e 6 8 1X0X*.*.( U U z x c h M c c b n 7X<X%.$.U c z j T b E [ W W x z 2X0X .*.U E U x x c ",
"W U T U T Z nXjXI P 6 > X + > 1 X $ 1 8 6 9 1XqX4.*.H P U P T y W W T I R [ bXhX:.$.b j 7 0 z b a k U x x b tXuX%.*.K U W U T s ",
"X.[ V n B Z rXjXR T p 3 ; > : 7 # < 7 9 p l *XwX1.;.m n B m ..N X.[ [ n ] O.yXuX1.=.] v p p v b l k [ m N n 1X9X;.;.c m C B [ E ",
"].E.].%XA.].jXhX/.{././.^.^. X/././.%X[./.~.uXuX]./.&X-X&X~./.~./.~.XX&X]./.hXwX{.{.XXXX/./.XX).[.^.[.%X~.A.kXxXE.&X$X-X{././.^.",
".XXXXXXXA.$XwXwXXX$XoX X=XOX-X=X.X X X XXX.XwXlXoXXX&X=XoX XXXXX XOXoXOXA.].tXeXXX X X$X X).-XoXXX.X$X@X(.<XqXwXXX-XoX-X X&XXX@X",
":.*.:.5.6.j.w.&.;.&.&.*./ #.,X9X$.) M.m.2.*.*.:.&.=.&.*.&.q.7XfX{ x y G G F u u u u y y y z 4X9Xg.v.|.U.R.P.Y.'.J.H.P.V.N.K.yXzX",
"*.-.:.:.5.3.*.) $.%.%.:.! O.4X9X%.%.9.k.%.%.&.) $.$.%.%.:.<.nXiXJ S r S F S r 4 e e r r e 8 4X<Xb.P.T.T.T.Y.I.I.P.I.P.P.N.H.bXlX",
"_ $.x x x x x U U x x s t k rXeX$.) P P x s U c x x P K U B gXwXP y $ $ %   o o   o O O @ ; 9XdXN.v.w.i.i.a.a.g.a.a.i.n.<.f.iXdX",
"_ :.s b E x P h x c x x k k 9X0X*.*.K b b b U h c c P P U n qX8XF y O o $ o O . X o # $ + X <X@XD.H.q.u.a.g.d.i.a.g.u.z.<.r.aXdX",
"_ $.t p m b b x P x b P b v rXiX_ w.x b m v b h P T P P T E 5XtXJ s     : @ $ . @ @ @ * > : 7XgXb.G.<.u.p.p.u.1.g.v.<.c.<.s.rXtX",
":.$.d d b R { } m n B n n Z 4XqX%.*.T b T b [ [ N ..m n m Z ,X2XW d > + : > 1 > : : ; < 7 p ,XtXW.W.d.d.1.d.F.D.g.Z.s.f.g.S.7XqX",
").).(.(.).).(.(./.~.XX)././.hXvX).>X).(.).^.(.(.~.{.{.{.{.{.qX0X{.~.^.^.^.~.^.(./.)./.{./.A.jXaXXX(.).(.).).(.(.{.&X/././.~.qXqX",
"$X XoX X^./. X-XXXXX-X&X$X&XpXuX;X=X$X$X X/.$X-X{.-XXXXX X&X1X9X X XoXoX X XoX@X=X.X/.oX/.XXhXqX<X/.;X X X$X&X&X{.-XoXXX;X&X9X0X",
"4.$.&./ &.;.4XwXn.N.H.K.G.L.`.`.I.P.`.T.n.h.7XwX*.:.6.j.&.$.*.3.4.1.X.$.$.i.*XqXb.H.H.J.N.H.'.'.Y.J.Q.T.z.v.2XsX*.:.:.i.*.&.:.:.",
"&.X./ / :.<.4X9XV.R.D.H.D.H.T.T.Y.I.Y.I.a.g.rXeX5.2.4.5.%.%.*.%.X.$.o.&.$.#.4X0XW.P.P.H.H.H.T.T.Y.L.U.'.v.F.2X0X2._ 7.2.2.' _ _ ",
"x c c K P [ yXcXU.I.n.p.s.#.#.q.g.p.i.z.;.f.yXuXq./ U U c c m U U x h P T O.nXhXT.Y.a.q.e.#.q.#.v.p.:.i.;.s.hXhX$.X.U U x c c c ",
"c x P W P [ gXzX`.U.a.u.p.e.y.e.a.a.u.i.q.s.yXtX:.$.W I h P P P U x P W R B nXhX`.'.a.u.u.e.y.#.c.a.w.i.u.s.fXqX-.+.{ T s s T T ",
"P x U { t l gXaXM.M.z.1.i.i.1.1.i.d.#.u.q.e.6XqXW W W W U b U W h x { W t k fXaXM.M.z.1.i.i.i.i.d.p.w.u.e.#.6X4XU Y ( W U P U U ",
"n m +.+.9 l 2XaXH.G.g.d.f.s.s.r.d.g.s.s.s.t.2XaX[ [ X.+.[ E X.+.E m ..C k l >X9XF.F.g.d.d.s.e.r.g.S.d.t.r.t.tXgXE [ X.+.E [ X.o.",
"{.[.=X%X}.~.kXhX{././.{./.).&X/.[.{.$X%X].~.fXhX).{././.~.(.XX>X&X[.*X[.{.).kXhX{.{.~.{././.)./.E.).%X-X].[.hXhX X XoX/.^.^.-X<X",
"(.<X&XoXXX/.9XuXXX X/.XX XXXXX XXXXXoX=X%X&XuXhXoX X X&XXX.X;X1XXXoX-X.X).).9XpX&X$X X&X XXXoXXX=X@X$XXX X;XhXuX&X/./.XX X&X>X<X",
"/ o.%.4.&.&.*.*.-.$.{ %.) q.7XaXz.5.5.8.4.5.:.:.*.*.%.w.*.;.2XqXX.{ $.;.-.:.*.&.*.$.%./ $.<.6XrX-.*.%.%.! !  .$. .W ~ ` / o.2XqX",
"Y W %.%.-.%.*.-.$.*.&.2.$.;.rXeX3.3.3.%.5.*.%.$.$.*.%.*.| &.4XrX!  .&.-.-.| *.:.&.%.2.&.*.=.6XrX| | ! ~ ~  .^ I W W ~ ! ! W rXrX",
"%./ P c $.%.P s 0 t t b x n qXdX4.:.R b a a x T f f s c T ] uXuX:.$.P P &.$.P x 0 t s z x c aXaX! ) t 0 2 6 q f 5 , t w t z fXhX",
"2.*.M j &.%.P m t f z n v n tXeX%.:.P z b d s T f k b m U v 0X9X:.*.x s $.$.x x f k x v b v aX9XQ ) w e 8 7 6 w 5 < a z z p tX0X",
"%./ q 5 P W t k s a t e s b bXxXl.*.u g c M c j x s H d H b 2XtX&.o.q 6 W m 0 f c a s 0 s b fXiX3.*.- 0 a z 0 6 w 7 r e e a 7XuX",
"5.X.p 8 [ { s 8 b z i i v Z 4XjXx.w.K a m T T P n b V v V O.3XiX8.=.t t [ X.b a n k z < v [ 2XiX4.$.7 8 8 a 0 8 a p a p k n 1XqX",
"(.XX).(.(.(.(.+X{.{.XX).&X{.fXaX).).XXXX.X.X.X.X].].&X).{.].dXqX).(.(.(.(.(.(.+X{.).&X(.{.].aXuX/./.~.)./.).).).].).&X{././.dXaX",
"XXoX:X:X$XXX-X-X$XoXoX X&X&XqXdX{./.&X X/.&X).&X).XX X(.$X*XqXlX$X$XoX-X$X$X=X=X X X-X_.&X&XdXhX-XXXXX/.$X X XoX{.(. X.X).;XwXhX",
"*.:.4.3.-.#.6X0X/ &.&.-.5.4.x.x.7.4.$.*.*.i.,XuX:.&.%.2.k.x.K b %.3.*.*._ u.6XdX;.:.&.-.5.3.k.m.6.*.*.*.-.1.rXqX:.$.3.2.m.x.P M ",
"*.%.-.2.%.=.yXiX%.2.| -.4.6.m.m.-.:.$.*.$.+.7XwX:.%._ 3.x.x.W U 4.5.%.3.%.;.5X9X2.2.| 4.6.6.m.m.2.&._ *.! =.tXtX*.%.%.*.m.x.W b ",
"x c x x x v pXuXW W c c c v c x R W W W Y b ,X0X:.&.Y U K P t x x c x x h m rXqX$.X.b c z c U U U ( Y / x b 1X0X-.%.W P P P x x ",
"x c c x c n yXqX%.$.P c c x x x U E W W P v 2X0X-.&.W W U P x b c c c c U n tX<X%. .T b c d x x U E W W y x 2X2X%.*.W c U h x c ",
"W R R T U [ bXmX%.$.U 0 9 7 z b 0 0 x U b n 6XqX-.=.z c E U U b Q W T P R [ bXjX-.=.b a 0 7 z b 0 k P b b b tXqX*.=.x c m c U z ",
"X.[ m n m O.rXjX&.=.[ b 0 7 v n k k B B N Z ,X2X8.-.T [ T E [ T W B n b [ @.yXhX1.;.m k 9 7 v b k l V n Z Z 1X2X4.-.E E U T } T ",
"/.{.).{./.~.fXsX/.&X&X).)./.&XXX/.].*X}.~./.xXzX).).(.+X.X).).XX].&X-X{.{./.aXdX/.+X&X&XXX).).)./.).[.].].].hXxX^.)..X+XXX).XX(.",
"XXoXXX X/.XX9XhX X&X X$X XXXXXXXXXoX-XXXXX.XuXuX=X-X+X;X X$X X=XXX.XoX X/.%XqXaX-X=X X&X=X/.XXoXXX.X{.XXXX-XeXuX;X X-X-X X$X&XoX",
"D.H.U.Y.`.`.U.I.Y.H.I.P.n.G.4X0X! ) x.x.%.2.$.$._ %.2.*.*.<.tXxX3.*.:.5.6.6.%.%.*.$.| *.W +.4XrXs r Y Q = 4 w 4 4 u r u G H yXcX",
"V.P.P.R.U.T.T.U.Y.H.I.H.i.g.rXwX| %.6.m.2.7.%.%.X.$.%.&.:.;.gXuX:.&.$.:.9.x.:.$.&.:.-.:.$...;X8XS F F Q G S r 4 = 6 u u S H hXsX",
"b.n.a.i.v.a.a.a.g.v.i.z.+.,.1X8X*.o.x c z z c x c x H b R [ aXiX:.*.x h P x P P P x s x 0 k 2X0Xy t * % . . o o   % O @ & 3 rXaX",
"N.N.u.q.a.g.p.g.z.i.i.i.X.O.9X9X_ *.P b c b P P z x H U T T 2X9X*.;.M M n z c b U x P x t k 2X8XF y   @ #   @     o @ @ 1 1 tXuX",
"M.x.;.=.z.v.d.i.i.d.u.g.#.>.iXuX_ %.H b b b x x U U T b T m qXuX4.$.w t E R ] s x x T b z n rXqXD D O $ + + o   * > * $ $ : 6XhX",
"H.g.>.>.Z.Z.g.f.u.r.r.s.r.t.7X0X1.:.T b d V x R E [ T v b O.>XtX8.=.z 0 b T ] T c v n v n C 6XqXP s * + ; o @ @ @ ;   # < 0 2XqX",
"-XoX/./.XX).)./.-X*X$X%X{.].uXhX/.).~.).).&X^.XX].$X%XXX[.[.0XuX).).XXXX)./.).XX*X&X*X{.}.~.jXzX).{./.XX).XX/.XX[.&X%X&X[.E.hXwX",
" X XoXoXOXXX-X<X.XXXoX XoXoXwXsX<XXXXXXX X>XXXoXoX@X.X.X X&X#XpX&X XXX X X XoX+XXX.XXXXXXX>XaXvXXX-XXXXX^.XX X<XXX.X/.XXXX$XeX9X"
};
