/* XPM */
static char *_578398813001[] = {
/* columns rows colors chars-per-pixel */
"64 64 113 2 ",
"   c #0B560B",
".  c #0E5C0E",
"X  c #105E0F",
"o  c #145614",
"O  c #145C14",
"+  c #1B561B",
"@  c #1B5D1B",
"#  c #076B07",
"$  c #0E640D",
"%  c #0D6B0D",
"&  c #10660F",
"*  c #106C0F",
"=  c #077307",
"-  c #0D740D",
";  c #0D7B0D",
":  c #10770F",
">  c #107B0F",
",  c #146414",
"<  c #186617",
"1  c #146C14",
"2  c #1B641B",
"3  c #176B18",
"4  c #1B6C1B",
"5  c #147414",
"6  c #187417",
"7  c #147C14",
"8  c #187B17",
"9  c #1B741B",
"0  c #1C7B1C",
"q  c #20721F",
"w  c #207A1F",
"e  c #225D22",
"r  c #226422",
"t  c #236C23",
"y  c #286F27",
"u  c #2A632A",
"i  c #2A6E2A",
"p  c #237423",
"a  c #237C23",
"s  c #287A27",
"d  c #2A742A",
"f  c #2A7C2A",
"g  c #346D34",
"h  c #327531",
"j  c #327A32",
"k  c #387B37",
"l  c #3A7B3A",
"z  c #088B07",
"x  c #0D840D",
"c  c #0D8C0D",
"v  c #10850F",
"b  c #108A0F",
"n  c #0D940C",
"m  c #0E9A0C",
"M  c #10950F",
"N  c #109B0F",
"B  c #148314",
"V  c #188317",
"C  c #148B14",
"Z  c #188C17",
"A  c #1C831B",
"S  c #1C8B1B",
"D  c #149313",
"F  c #189317",
"G  c #159C13",
"H  c #189B17",
"J  c #1C931C",
"K  c #1D9B1C",
"L  c #20841F",
"P  c #208B1F",
"I  c #20941F",
"U  c #209A1F",
"Y  c #0EA20D",
"T  c #14A312",
"R  c #19A417",
"E  c #13AB11",
"W  c #1CA21B",
"Q  c #1CAB1B",
"!  c #20A31F",
"~  c #238423",
"^  c #288427",
"/  c #248B23",
"(  c #288B27",
")  c #2B842B",
"_  c #2B8C2B",
"`  c #30862F",
"'  c #30892F",
"]  c #249323",
"[  c #289427",
"{  c #259B24",
"}  c #289D27",
"|  c #2C932B",
" . c #2B9B2A",
".. c #319C2F",
"X. c #338433",
"o. c #348C34",
"O. c #388B37",
"+. c #3C843C",
"@. c #3A8C39",
"#. c #329232",
"$. c #349B33",
"%. c #3A943A",
"&. c #3A9C39",
"*. c #24A323",
"=. c #25A924",
"-. c #29A927",
";. c #2AA329",
":. c #2CAB2B",
">. c #34A433",
",. c #39A937",
"<. c #3DA13C",
"1. c #32B331",
"2. c #408440",
/* pixels */
"4 # ^ X.| > B D I *.=.=.K 9 2 4 2 4 / K Z A 0 a | J K _ B ~ A / a 3 S H A 3 / 0 , P G 8 v a _ X.  - ^ ] Q ! ~ A S _ + X.~ e p t ",
"J C 2 O L 4 1 6 0 A p 5 p 0 0 a ) o.A 3 1 3 a / f f X.L A _ D I ~ t ) ] ] 3 5 J 4 9 S D S x , 4 S - 0 ~ 0 s 3 J d i f ~ ~ r ~ c ",
"a y p 4 6 > 3 2 d #./ L s S D W P L K 3 p 3 V 6 r h a ~ L ^ ~ ' ~ 5 p M 0 @ 6 V ; 6 0 5 9 , 3 6 B % / t a %.P Z Z < ~ i j 9 3 # ",
"y i y / ( d 0 p p A V 0 0 Z P S 8 5 I B B 0 5 ~ S f 9 I 5 : ) ) A , , 5 ~ ) 0 3 , p B B @ 0 J } A o F / 5 _ { 4 0 V f 2 u P S b ",
"d +.) | / ) ~ ) ~ P / : 0 6 ~ q i p 7 A , r ~ L i 6 S / S c / | A ~ 9 t j ] ~ * B S 0 j f 3 * $.d + 5 G I f a 5 , a F B p 8 B ] ",
"s 9 & A 6 p L B S | f | 0 ( ..) v 5 e K ] p - t 2 i 1 D D [ f 0 D 0 o a t _ a A D 6 A X.a [ p F f j p 7 3 r p ~ A & O 0 ( 1 8 ] ",
"+ , 3 F | Z 5 * 7 ] ~ ) j ( ] 7 6 - ~ /  .5 D t @ L C 2 p A 0 , - B 3 ] 5 q ~ q 5 9 7 ^ * { ' 0 P ! m n D 8 a l f / 9 8 K C 5 u ",
", 9 1 A P A - : ; 9 7 5 p )  .M L B D 3 / 0 c 0 o @ 4 4 r a 2 % 8 S A a ~ L A ] W C 5 0 q U b p p 0 A 5 = 5 4 r a / >.p 4 8 8 i ",
"7 5 & , J j 4 : & 3 4 2 5 7 / > B P S 5 t ~ : 5 - z ; a 8 | Z q @ ~ t 9 a r L K V / C 7 i | D ` 9 5 0 t > B 7 7 B 7 ~ 9 2 V V S ",
"&   0 : 9 p p D C - A [ ] 9 p V v ~ ) f 4 1 7 B [ 5 % . 4 ;.n t a S A Z J 3 9 8 t , 3 P f d 8 2 O , 5 A P U I V [ 5 0 3   8 0 a ",
"O.$._ 7 3 0 9 . V c 7 M / a 9 7 V | p X.S % % A f t 1 1 @ F x p A  .J [ d C P / J p p p ~ a f o.~ B 4 3 F C 0 9 #.F D _ p 9 V b ",
"t >.J 9 O , ~ b L 7 ; C T / / A 0 ) 4 $ 8 7 4 S Y G Y ] @ L J a 0 q 9 ~ h 9 V 0 L  .N v L  .| J o.o.0 i i ~ d A a _ B - 3 a V H ",
"3 0 D a / 0 p 0 7 ~ L p J I V P ; 5 L 5 J / d L A B b f u q S - B ~ ~ $.l a v $ o 3 P _ 6 V p Z a B 7 d 9 9 0 b M D D P B V t _ ",
"9 1 D | p B P S 9 7 [ B 0 / x B ~ a f p A N ] ; V X.V 3 8 B | x - 3 t S A 4 1 . , A ~ ~ 4 ) X.~ f 9 A ~ t - C 1 ) 9 8 ` k 5 7 p ",
"7 7 1 8 e L ) p t 4 L S f [ B 3 B 0 6 9 7 7 P Z f f A J { T G A 0 7 t 8 m 5 % $ r f 0 9 , 1 Z ~ 6 8 : 0 r , S 9 6 9 9 A y 0 ; B ",
"0 p 3 } 0 7 O 0 ~ 0 d U B / V 0 x - 3 a 7 , d ; f @ 1 0 % ; B / a B $ - x D 3 v ] o.7 8 V , A v A 7 ; 0 p 9 f ) A 6 8 4 2 2 , ! ",
"r t : Z j Z  .[ ~ , @ ~ 8 S C 7 ^ % i a v S ] S ] a a 4 p ( 0 A S A * 2 3 0 6 P a 5 f d F ( t ; ~ 0 5 0 | 8 0 a 8 5 q ] I / _ >.",
"0 4 , 2 i d ~ ~ [ S 4 9 0 ) 3 B I L A : 0 ^ ' a _ f 0 |  ./ p p V I y V J 0 2 a 7 A ) q ~  .t , 8 S | 0 ~ N D ~ S B r 0 C a q ~ ",
"9 7 K _ 5 p , O 6 d ] f A ~ d a a A 5 p 9 l 4 5 P | ) ~ 3 4 2 J M p g ` 0 O % D G =.} V p ,. .~ ^ 0 a % $ q U / t A 0 0 5 8 ; 5 ",
"2 . 0 P F 7 p 3 Z 9 h +.d 8 I 8 ^ o.) A B ) : ; 7 *.a P A f q A 0 ) , / *.K ~ r % 9 ) 0 3 ) :.F | ~ 7 c ] 9 3 7 i 7 : 4 0 t 9 8 ",
"O 1 D 3 9 p t 6 7 S ; A 0 4 A ) A K } A 3 S a 0 - / V / / I F 9 t , . 8 o.>.K 3 t f j S S 5 U ] j j 3 5 8 ] { ) t - 8 3 w g 2 3 ",
"C 7 n 0 d 4 a ) p 3 5 - a ^ a ^ B W ~ 4 1 p h 0 ; ) | A ( 7 ~ 0 d 3 9 S I 3 0 [ ` ) #.! G F A W ~ a S ~ / / ) p ~ 0 9 p 9 ' L V ",
"1 * 7 p d 4 j ) d 3 p Z ^ ~ A 3 , 6 L J B S v 8 9 7 0 d r I U P d ) I } P p p 2 l p 9 $ 2 2 4 8 b F ;.=.B 3 C 3 *.^ % p l 0 A +.",
"4 L 5 5 A f p f ~ p ) *.] 0 { ~ t B S B _ P ; ~ A 5 5 , 9 a $ 6 _ P J =.4 t S 0 @ , B 9 S % , 5 A B J p f / C 1 ] H c L 0 9 a p ",
"f ^ / P > t 9 ) | ) 0 ( | d  .5 t r 1 3 r d 9 ~ F { C a 4 r t i - 3 a W 8 3 0 ] , r B x x n B : | 4 7 / / i 9 a A N 5 S Z 5 9 ) ",
"7 a d ~ ] 0 d p 3 S C w A 4 [ $./ B 5 p 3 p i f 3 0 A 5 5 _ ( a x 8 a ;.J / p A ; 5 1 5 0 5 ] C 5 9 n Q ;.U 8 9 q H p i a 2 p 0 ",
": 7 3 q ~ R  .v V B 8 t 5 o . } *.B 4 * B D w o.5 ) | a 9 3 6 t / { X.~ B ) , 3 B _ / 5 ) 0 G F - f 1 % 5 V ) 1 2  .{ ) 0 8 ~ #.",
"2 7 - 9 , 5 V / a J ] P 7 a ; c * 0 A 5 - E V A 7 2 :.] a 5 x 5 , $ C % O 5 7 5 V 4 ) ) 8 * 5 J :.#.9 7 8 4 , , 1 S B _ p 3 0 U ",
"3 2 0 ^ 8 $ 4 p 3 3 @ 2 8 ) 0 ~ 7 7 D 7 3 ! 7 9 A 0 ` P 3 , 8 A 5 % ; = 9 C K / ; , a &./ b 9 5 ) J 3 d i a L J N Q / 5 $ 4 r 9 ",
"5 0 w V S 9 5 3 7 b p 2 C 0 a *.Y *._ f 4 ] L a / 4 i | 4 , ~ 4 0 @ p % . B ;._ a a 5 K 8 9 ) 8 8 d 4 ) o.i P ~ A ~ A z 7 S 8 1 ",
"B 0 X.3 5 A > 4 2 { > D | D t + 2 a S 4 O 0 S ~ ~ = ~ d [ ) D H P d 4 J ; < r a a #.~ B 6 4 7 _ ] o.2 2 t 4 0 / / B A c b / / / ",
"0 3 ) F a #.^ 1 , ~ S 2 J E a / ] , . 8 ] i f ] o.t p 6 7 / 0 + 9 >.P K _ p 9 9 V S J J J f , . a [ U M 5 4 2 . @ 3 V A 4 o.; - ",
"p 2 ^ { 0 d S ; 1 S T 6 7 A / B 2 1 8 J 1.! A V ( @.d } A , 8 $ % - A L I > _ _ C *.-.1.$.p , @ t 4 C J B a ~ V #._ H / f ) A S ",
"C a A n J u p M 1 a ; [ / V , 3 P 6 B B V S , $.y 4 6 f J 5 B S n / @ < b p i 9 9 0 9 p j ~ 8 a f | P 5 % 5 0 c a 8 V / ( S #.D ",
"8 h 9 c ; @ i 7 - 9 ~ p p $ 9 a 0 % M 4 i  . .~ / 6 B * 7 3 . 3 x t d 1 - 0 2 , 9 _ P S a ~ F ;.L P { 2 9 3 ~ 5 , 5 0 0 S B f S ",
") $ 4 d 0 0 f 6 3 d L S , ; C ! )   B S 4 V W t 9 Z V 2 , / V ^ - 3 4 F L 9 0 p 0 X.X.; a ) S _ 0 % U A B V q 0 ] S ) o.q L 0 ) ",
"v / 9 t j o.8 , S c a p 0 5 % N a + q ] Z 5 B a 2 P G 0 3 v n F : 0 7 F I A V ~ ^ ' @.d d p f 5 5 3 A S O . A A S ~ A ` / ) S K ",
"o.f @ ) q o.~ v C 7 7 7 - m - D A ~ 6 a p r t ) Z 7 . 5 S 3 H I a p < ~ : 4 ) V V [ ^ #.L _  .x 7 5 2 i / 7 % 9 9 ) 3 9 A ] ~ 7 ",
"d L , ) 6 8 0 p d d 0 ~ 3 W A ; ] ;.J K J d d 9 5 S 0 6 G P ( 3 @ g t #._ _ p 9 : U ) %.7 ~ | ) 7 ; C p 9 0 L p f n c 2 p ) 5 . ",
"V c ~ j 6 ; ) [ K I d 0 1 } J 9 5 3 ~ 5 9 7 3 @ 0 ' &.) p 5 v 5 2 4 , L / ) 5 f 0 5 x 7 5 ~ I ' a L J L p 4 a 0 5 7 a t 9 0 1 , ",
"@ ~ p 9 ~ , ~  .x J ~ w t F b ) 5 9 5 3 7 D I / ) 3 3 , 2 p 5 S ) 4 r O J 0 4 5 t 4 9 t 3 7 x 8 / J [ a , - ] ~ 9 . 0 f n C A p ",
"7 ]  .| | d * A i . 3 B p 7 j t @ O 5 v v ] A I *.p a 3 e _ C B % O 7 a d p p D ] 4 A %.#.= 7 V D A 5 9 A 0 J 7 > 1 2 r S ( w 9 ",
"P |  .U F / A S ( p p ; 0 a 8 D S p 2 9 / b A 6 ^ ) ^ ^ X.) A A Z H ] a < 9 1 . L D ; ] | 5 9 d S c . 7 x 4 3 c / L 9 t A S 3 3 ",
"B 3 9 A ~ @ r 0 S ~ _ V ) $.A K #.@.9 4 9 V 4 A 0 S ~ d r 0 a | 4 ! [ % . , B L B x ; P *.p / / ; C 3 @ 5 5 - V { J F S 3 S U A ",
"5 @ 0 , A F ; 8 2 4 p 1 t S p S ) ~ a i 0 8 a / J S  ./ A ~ 4 P 9 9 H 5 S a 9 p 9 B v 3 | | i | : 5 j , . % 9 ( 0 L A g p ~  .A ",
"5 u a 9 1 / ~ p ) A _ ] ~ S V ) a 8 5 A 3 - 0 r x 1 v K ^ 9 5 5 8 3 b A 9 a o.D 9 9 M L 0 P 9 9 ~ 5 f 8 4 A w P V 0 S L w 5 7 x ",
"a ~ i | 0 0 0 a A 5 A a a 1 B _ 5 f 8 B [ r ^ p 5 1 $ 5 ~ x 6 C 0 3 1 S $ ; ` p 4 d x U ~ _ 5 3 - 6 p 1 5 7 U / S v { { U 7 - 5 ",
"L A 4 _ 3 @ a S U 3 V 3 0 t 1 ) L p p % D Z x A ~ 7 5 $ 2 / t *.) 0 , 0 B 0 . 0 / p 9 K L L ~ 0 1 ; D ) p 1 { ( 7 % ~ ' t A ; / ",
"] / ; 4 5 8 9 8 C P ) 0 5 J > B C 8 ~ H ; { A ~ a p 9 D Z 7 I ] p 3 p B - ~ U D ^ X @ ^ 0 / 5 J V 3 5 0 A p J ~ Z 0 0 d 8 / : ~ ",
"7 I t _ H - 1 A f @.L 3 5 V ~ 9 7 9 ^ ] ~ A a f J J C A S , B ~ 9 . 5 1 r a ) / { S t s j d 3 9 / _ Z % - ~ ] ; b f j %.$.| 3 3 ",
"n A 3 ~ a @ . 7 / a 7 ~ j 5 F L a p 7 P +.2 9 j ] b % $ % 3 B 3 8 C P C < C 3 3 5 7 S B a ~ 0 a d 9 3 , 7 V ~ p ~ ] X.o.p @ 3 K ",
"8 Z 4 a _ ] ) 5 > B 9 ) w 0 B ;.Z J Z 6 a r | 5 3 i f 3 9 , H 5 & = 9 ) B ~ L t ) 9 8 x f w J s a L / ` ~ A j p a *.~ @.7 a 5 x ",
". , , S V D _ 4 % 0 f X.B B 0 p V 9 , 5 : a ^ 7 S ;.{ a ~ 2 ] 1 p S M 7 % 4 ~ d j ( 7 0 ~ a ~ V B K <.X.t ' 0 9 p _ V V ] J n ; ",
"9 t 9 S H 2 3 S S / / ) ) ~ S t ~ F D B A A 9 ; 5 0 B J 0 0 K J O.w A 7 d O w ^ 7 1 5 9 ~ ^ d A v N B O - 0 5 v 9 o.J B / A 0 A ",
"1 0 $.} S p t 1 5 9 ` t p H { B B ] ] C 5 J E n 5 : q t 8 3 3 A L 4 9 1 a V D L p i 8 x P A B 3 e 3 D G V | ) 6 9 f a 3 3 / $./ ",
"] V F W 4 4 S - + r / a 0 A G G B p X.V p 5 5 N B a / X.~ b W V 1 L < 9 P V V V ( j f T D 7 G B g ` / Z P / 0 ~ ^ 5 4 @ 5 8 . 1 ",
"a 4 7 W j 4 5 K 4 @ B A V ] C D N p ~ ; 0 C Z 0 1 2 t a ( 7 7 : p P C _ - r 3 P  .S 5 S S a K 0 5 t 4 3 , d B x S | / a 3 , 4 5 ",
"C V 0 ! S _ 9 P ~ a 5 8 0 0 D L 0 ~ 7 3 P J ] A 5 5 9 2 9 , 5 5 f 0 0 w F 0 5 5 3 C D 5 v * / D S ) t 3 4 p 9 B 1 ~ f A d F ~ a ",
"A { 0 ) S ~ 3 3 7 ~ S 9 f 9 t p p ~ 9 ; S ) ~ p 8 ! D p f a ~ ] 9 7 3 - B >.H C B A f 3 5 O e J ! L 4 i f %.3 ~ p ~ I B 7 1 d p ",
"@ 3 J 3 O 3 A p ~ 3 ~ V 7 5 t , 3 f 6 B ~ l 9 - 0 { Z / d 4 0 S 2 5 7 5 @ d b V 0 [ [ b x 7 p S 3 a 7 9 5 =.l 2.) 1 Q S a 9 a 5 ",
"5 3 B d i / J C p 3 7  .C L a : B D 9 1 h f f v L D / h t 5 1 5 < 3 V A j u * 9 3 4 O < 5 B f B 9 h I 8 4 W a p ~ 5 B C 2 2 9 A ",
": , 9 , 2 X.{ S 5 a 3 &.5 3 0 ) ~ C 1 0 ] ] K _ ) ; K / L / 6 3 p 7 a B / 8 t t 8 S a @ x a p N } <./ L 4 [ L 5 S % - ] t u f 4 ",
"_ f 4 S - r 3 7 5 U ) A a 2 d S F _ , , 5 : C #. .b S I P ] @./ ~ a ) 3 t L B 9 2 { f F D [ 4 o , p ^ t O p ) A L i ) 7 J X.O.{ ",
"/ E A J { 5 r 2 ) ] | ] S ) r . B -.&.#.1 9 9 O O * X.) t ~ j 7 f t C Z j / P 5 r ~ ~ 3 { Q 7 C T $ + A / t a %.) p 3 = 5 F ) @ "
};
