/* XPM */
static char *_60c5afaece44e0b97c77c0516e1f187[] = {
/* columns rows colors chars-per-pixel */
"64 64 2 1 ",
"  c None",
". c black",
/* pixels */
"                          ....      ................            ",
"                          ....      ................            ",
"                        ......    ........    ........          ",
"                        ......    ........    ........          ",
"                      ......      ......        ......          ",
"                      ......      ......        ......          ",
"                      ......      ....              ....        ",
"                      ......      ....              ....        ",
"                    ......        ....              ....        ",
"                    ......        ....              ....        ",
"                  ......          ....              ....        ",
"                  ......          ....              ....        ",
"                  ....            ....              ....        ",
"                  ....            ....              ....        ",
"                ......            ....              ....        ",
"                ......            ....              ....        ",
"                ....                ....            ....        ",
"                ....                ....            ....        ",
"              ....                                  ....        ",
"              ....                                  ....        ",
"              ....                                  ....        ",
"              ....                                  ....        ",
"            ......                                  ....        ",
"            ......                                  ....        ",
"            ....                                  ....          ",
"            ....                                  ....          ",
"          ......                                  ....          ",
"          ......                                  ....          ",
"          ....                                  ....            ",
"          ....                                  ....            ",
"        ....                                ......              ",
"        ....                                ......              ",
"        ....                              ........              ",
"        ....                              ........              ",
"      ....                              ........                ",
"      ....                              ........                ",
"      ....                            ........                  ",
"      ....                            ........                  ",
"    ....                              ......                    ",
"    ....                              ......                    ",
"    ....                            ......                      ",
"    ....                            ......                      ",
"  ....                ....        ......                        ",
"  ....                ....        ......                        ",
"  ....                ....        ....                          ",
"  ....                ....        ....                          ",
"..............................    ....                          ",
"..............................    ....                          ",
"..............................  ....                            ",
"..............................  ....                            ",
"                      ....      ....                            ",
"                      ....      ....                            ",
"                      ....      ....                            ",
"                      ....      ....                            ",
"                      ....    ..................................",
"                      ....    ..................................",
"                      ..      ................................  ",
"                      ..      ................................  ",
"                              ..........................        ",
"                              ..........................        ",
"                                                                ",
"                                                                ",
"                                                                ",
"                                                                "
};
