/* XPM */
static char *_578398820375[] = {
/* columns rows colors chars-per-pixel */
"64 64 160 2 ",
"   c #2E2A22",
".  c #3E372F",
"X  c #433F36",
"o  c #423E3D",
"O  c #4A463E",
"+  c #4E4A42",
"@  c #4F4E4D",
"#  c #534F46",
"$  c #514E4B",
"%  c #555146",
"&  c #55514D",
"*  c #5A544C",
"=  c #5C584F",
"-  c #545453",
";  c #5C5A54",
":  c #5E5C59",
">  c #625C53",
",  c #625E59",
"<  c #64625C",
"1  c #68645D",
"2  c #6D695F",
"3  c #706D5E",
"4  c #656462",
"5  c #6A6662",
"6  c #6B6964",
"7  c #666469",
"8  c #69676A",
"9  c #6D6B6A",
"0  c #706760",
"q  c #726D65",
"w  c #786B62",
"e  c #716E6B",
"r  c #767166",
"t  c #73726D",
"y  c #7B756D",
"u  c #7F786E",
"i  c #747473",
"p  c #7A7673",
"a  c #777976",
"s  c #7C7A74",
"d  c #767578",
"f  c #7A777A",
"g  c #777A7C",
"h  c #7D7C7A",
"j  c #83766D",
"k  c #817B6B",
"l  c #827D74",
"z  c #827E7B",
"x  c #7F807C",
"c  c #868277",
"v  c #84827D",
"b  c #8B857C",
"n  c #8D887D",
"m  c #91877E",
"M  c #948F7C",
"N  c #7D7D80",
"B  c #807F84",
"V  c #7F8084",
"C  c #858482",
"Z  c #8A8683",
"A  c #8B8985",
"S  c #868689",
"D  c #8A8688",
"F  c #8C8C8B",
"G  c #928C85",
"H  c #918E8A",
"J  c #8F908B",
"K  c #979183",
"L  c #94928E",
"P  c #9A958D",
"I  c #9D9A8D",
"U  c #9C9384",
"Y  c #8E8D90",
"T  c #938F90",
"R  c #8F9092",
"E  c #959492",
"W  c #9A9693",
"Q  c #9D9A95",
"!  c #969598",
"~  c #99979A",
"^  c #97989A",
"/  c #9D9C9B",
"(  c #A19388",
")  c #A49C8E",
"_  c #A29C94",
"`  c #A99F94",
"'  c #A29E9A",
"]  c #9EA09E",
"[  c #A4A096",
"{  c #AAA295",
"}  c #AFA896",
"|  c #A4A29C",
" . c #AAA49C",
".. c #AEA99D",
"X. c #B0A69D",
"o. c #B1AA9D",
"O. c #9F9EA0",
"+. c #A19FA2",
"@. c #9FA0A4",
"#. c #A5A4A2",
"$. c #AAA6A2",
"%. c #A7A9A4",
"&. c #ADAAA5",
"*. c #A7A7A9",
"=. c #A9A7A8",
"-. c #ADACAA",
";. c #B1A6A5",
":. c #B2ADA5",
">. c #B8AEA5",
",. c #B2AEAA",
"<. c #B9AEAC",
"1. c #AFB0AA",
"2. c #B5B1A6",
"3. c #BAB1A6",
"4. c #B5B2AD",
"5. c #BAB4AC",
"6. c #BDB8AE",
"7. c #AEAEB1",
"8. c #B2AFB2",
"9. c #AFB1B5",
"0. c #B5B4B3",
"q. c #BAB6B2",
"w. c #B7B9B6",
"e. c #BCBAB5",
"r. c #B5B6B9",
"t. c #BAB7B9",
"y. c #B6B9BB",
"u. c #BDBCBB",
"i. c #C0B7AD",
"p. c #C1B8AF",
"a. c #C1B6B4",
"s. c #C1BCB5",
"d. c #C2BEBA",
"f. c #BEC0BE",
"g. c #C4C0B7",
"h. c #C9C0B7",
"j. c #C4C1BD",
"k. c #C9C4BD",
"l. c #BDBDC1",
"z. c #C2BFC1",
"x. c #BFC1C1",
"c. c #C4C4C3",
"v. c #C9C6C2",
"b. c #C7C8C4",
"n. c #CAC9C5",
"m. c #C4C5C8",
"M. c #CAC7C8",
"N. c #C7C9CA",
"B. c #CCCCCA",
"V. c #D1C6C5",
"C. c #D1CBC7",
"Z. c #D1CECB",
"A. c #D2D1CE",
"S. c #CECFD2",
"D. c #CFD1D2",
"F. c #D3D3D2",
"G. c #D8D5D0",
"H. c #DAD9D7",
"J. c #D7D9D8",
"K. c #DEDDDB",
/* pixels */
":.>.a.d.j.$.s %.b.e.9 / r.N.c.#.L b.d.v.d.q.2.n.I I ` 3.o.M M x c n [ ..x q j.e.d.a.4.e.d.n.a.t.q.=.c.z.t.q.T B H a.;.a.<.;.<.z.",
"e.G :.k.d.j.v 0.B.B.r.d 8 F O.C x 1.0.t.d.,.%.P z ..P [ } I M 3 I o.o.2.c < k.g.e. .,.a.d.v.q.d.a.e.=.b.v.<.D f T W _ ;.z.<.;.a.",
"k.:.' q.e.A.a $.b.b.B.u.#.^ O.! #.| x x H / Z v | 1.:. ...1.) = x f.2.I 2 > 5.j.d.j.;.$.d.d.v.d.u.j.q.&.d.+.H H j f 8 0 T a.a.z.",
" .:.q.;.:.4.H C u.B.7.c.f.N.N.0.c.%.6 w.b.j.q.J q.4.4.2.1.o.o.3 O ) } [ v 9 4.2.,.Z.d.$.,.<.d.t.d.j.d.4.4.$.E B.t.a.<.B 0 j B X.",
"G , 6 s 6 t i 4.u.b.r.c.c.b.N.r.B.A i G.B.f.B.Q E B.f. ...1...x % P  . .b s e.;.t.q.v.d.5.0.z.d.a.5.e.2.4.&.F Z.0.u.B.b.z.=.' +.",
"d.' A s Z t t Z.c.b.N.B.m.B.D.u.B.x x b.e.b.D.M.L  .b.4...] ] v < Q k.2.P W  .g.v.2.5.d.q.,.t.d.j.d.v.q.e.w.W e.d.c.b.B.V.M.b.v.",
"V.k.;.| b 4 z Z.u.u.y.B.N.B.D.b.b.P v w.e.e.v.Z.1.C k.b.1.4.w.v * u :.3.&.2.Z e.j.v.d.v.d.q.q.t.q.e.0.b.w.u.S 9.B.N.l.B.u.N.u.M.",
"v.a.d.,.z , H B.b.B.B.u.N.N.B.b.w.b L &.F.b.v.j.e.E C n.w.4.&.r 2 O   O & G L | d.a.v.z.t.v.q.0.u.c.f.u.t.u.f E 0.c.b.c.c.B.j.c.",
"v.j.j.%.5 & ] A.b.b.F.u.N.D.f.F.%.n 6 : s  .e.B.e.j.x  .k.e.Q 2 G ] n 1 ; y e.'  .B.j.d.,.q.M.t.7.l.m.N.m.m.S d y.u.d.z.t.z.d.d.",
",.k.d.C 6 & f D.F.d.c.u.u.N.u.b. .[ I l 5 q b G 6 L Q b o.&.t y o.2.5.6.&.b q.j.E 4.v.j.u.u.u.c.l.l.l.9.z.S.B 7 z.z.z.z.d.z.0.<.",
"v.0.C t Q D @ ; T u.B.A.b.B.B.9.W 5.5.5.d.v.v._ P 6 4. .[ [ s _ } ] I ..q.s I B.t.Q e.r.M.u.M.u.N.l.l.l.l.r.! 7 r.N.M.z.a.t.0.&.",
"E | Z E =.J , - 8 a F *.-.%.^ ^ | j.g.e.e.2.d.V.:.q 2.&.] K c 2.4.5. .| q.c i g.v.$./ e.u.u.z.0.x.x.r.7.R d +.Y 7.F.M.M.z.d.t.W ",
"< ] #.%.=.v D ] f.9.J x i i V i &.w.e.4.4.=.&.u.e.v | '  .n P g.2.5.5.2.2.v 1 w.e.v.=.u.c.u.d.t.7.~ v p A S E E C c.N.c.Z.z.D 8 ",
"A A E #.0.*.f.e.w.r.B.x.9.*.F x B.j.f.1.,.d.d.e.Z.y H P  .s [ 6.w.2.6.6.:.] v &.n.a.| F r.y.u.#.Y H _ _ ..' Z z - r.t.l.z./ F E ",
"0.u.%.] b.,.8.c.b.x.x.N.f.@.i V F.b.m.e.0.u.d.c.u.t _ ' ..p [ 4.f.g.6.2.:.:.A v | / L h e d H | X.{ X.>.;.6.d.4.t D f.0.*.^ d =.",
"4.w.-.b.u.0.e.u.b.b.B.x.x.1.- E N.F.D.y.9.u.c.B.B.z ,.v.&.a  .2.o.g.6.5.f...I J ,.0.0.4.#.C / j. ._ } 3.3.6.3.q.0.9 g F S / Y =.",
"4.;.,.B.v.t.r.q.d.d.c.B.C.0.- r.B.A.B.b.y.0.u.b.F.F Z j.j.t ;.6.2.6.g.e.s.' G &.q.4.d.e.0.&.C [ h.2...e.3.5.j.d.q.0.i 8 C | #.4.",
"d.W j.v.w.u.e.=.u.d.d.d.v.z.@ @.f.M.b.B.b.t.d.N.B.4.Z :.b.G _ e.&.s.j.a.;.G z q.j.q.4.0.5.e.4.v =.q.4.k.s.;.d.d.4.=.V h / / Q ,.",
"5.&.&.d.v.B.u.-.$.4.a.j.d.0., R 4.j.b.c.f.c.B.N.K.0.h / 5.' ' ,.;.e.t.:.W P Q 2.j.e...e.v.q.g.4.v &.5.j.j.,.q.d.-.*.d L -./ Q 4.",
"W e.t.%.Q u.b.d.5.%.&.' -.v.i C -.u.b.c.e.-.u.c.H.b./ 4.4.H H e.&.:.:.| L Q d.u.d.j.q.j.A.k.f.b.-.a 4.e.V.,.;.0.u.u.d Y e.-.&.$.",
"y x 6 i N x Q C H q.a.d.e.B.J v -.d.M.v.u.0.r.4.B.c.0.j.d.H P d.,.' H | ,.4.d.j.k.k.M.f.v.M.v.j.M.&.t -.v.e.w.t.*.9.O.Y *.C C v ",
"| w.x %.y.^ %.J & 4 Q 2.%.1.Z a Q $.4.0.%.#.-.u.d.b.u.u.d.z z j.' L L d.e.e.d.j.v.b.b.k.u.u.Z.Z.b.B.v i | Z C L V S S i V E Q E ",
"&.E x u.f.0.w.j.;.l 5 L ..=./ s A v H Q C 9 C =.j.j.u.r.+.C W | W H &.j.f.k.n.4.b.S.n.b.b.b.c.c.b.b.L f Z 5 C / 9.y.@.V 7 ! O.^ ",
"| D V 0.w.f.S.f.w.e.h | ..q./ e.4.4.4.d.u.%.F 9 i &.0.#.D ' j.t.l Q v.e.f.4.b.j.b.n.B.S.c.c.u.B.N.F.J i L h E j.9.Y N -.! S Y Q ",
"1.4 F x.7.y.c.B.c.W z ' #.q.L *.q.q.e.,.,.-.M.-.E Q #.E C ' t.c.C , <.d.v.u.d.M.c.b.B.B.B.b.u.b.x.u.%.1.[ J 0.1.*.g N l.l.y.9.0.",
"C 4 *.B.0.7.S.y.H h _ H Q / D D ,.,.4.,.&.#.4.B.B.M.=.L H $.;.;.d.h 8 z.z.d.-.c.u.j.c.b.B.b.N.B.b.u.E q.j.Q w.f.] g y.x.x.9.7.0.",
"5 E y.u.-.y.0.L B $.Z.v.:.E F t L t.,.0.=.*.4.-.r.0.~ v a.v.0.' 0.v.l 8 v.v.u.B.A.B.b.b.z.c.B.x.x.y.F =.j.| | 1.d ! x.m.m.m.0.#.",
"A b.M.u.*./ Y ^ a.v.d.v.f.c.0.E t E ;.,.4.-.0.u.0.| W H d.d.d.k.<.0.z.e z w.A.b.b.f.j.F.b.c.N.x.w.0.L 4.k.0.] L h u.u.x.x.l.u.Y ",
";._ W L E Q 4.e.a.d.v.s.d.k.4.4.,.s C 4.-.0.u.4.-.E ' t.a.d.<.V.8.<.d.-., & H A.B.v.b.c.S.f.f.-.-.^ v j.n.k.f.%.0.c.b.m.N.m.8.: ",
") _  .&.L %.b.5.5.s.g.2.e.k.e.j.d.q.p i / c.f.0.| A W &.$.d.s.a.t.d.d.a.8.e o H N.J.b.M.f.n.u.c.c.-.| n.k.n.k.k.B.m.b.J.u.J i @ ",
"_ X.{ :.v Q k.g.6.h.s.6.g.g.g.f.u.c.u.C 4 ~ ,.#.D #.d.5._ ' s.z.s.,.v.C.0.Q 5 , 9 E S.b.j.n.D.1.#.%.f.k.g.k.k.Z.b.F.u.1./ H t + ",
"o.} P I r y g.5.s.6.h.6.k.g.f.e.d.d.z.r.! 8 4 h E $.+.a.q.q.a.d.d.0.a.v.d.;.s +.&.< L A.u.f.c.u.E 1.j.j.k.g.n.k.f.%.4.-.0.%.L h ",
"U { o.o.l r g.4.s.5.6.e.h.j.d.6.8.,.d.t.d.4.G B T d.;.q.<.;.<.V.>.;.d.d.a.&.h $.b.f.6 ] 9.b.x.@.L n.j.b.f.4.5.v.W P  .2.4.[ ..P ",
"{ { ....k 1 g.g.s.&.&.2.d.v.3.j.u.q.q.z.c.t.D d Y T _ ,.V.<. .e.a.G ;.d.B.k.z 0.b.F.w.a 9 S ] A x %...f.e.w.%.Q Z [ L | :.I { K ",
"r y y 2 % ; e.j.d.j.&.&.q.k.j.j.d.d.8.q.d./ E F z p 6 1 G q.5.k.d.<.X.<.5.M.s | b.b.f.f.%.E ] L | | x x L Q L y I 4.2. .....[ t ",
"u { 2.K 2 1 2.4.&.k.u.&.4.,.j.q.z.z.z.8.8.,.L Z.<.t.;.z 5 u c  .+.<.5.$.4.e.A F k.f.0.j.f.b.f.%.w...6 4.g.k.4.E e.4.2.2.1.6...c ",
"1  .2.Q A x 4.4.u.e.f.w.0.e.f.e.q.z.a.<.4.=.H B.<.e.N.v.d.%.Q | Z < q a 9 t a &.4.j.f.4.1.e.e.| 1.v p n.k.&.5.%...k.5.2.:.[ { c ",
"2 Q k.&.P W 1.f.v.e.q.e.,.w.u.j.d.<.z.t.e.w.E u.z.z.c.M.B.b.b.n.v.Q H s z 9 E #.| ] J ] Q L E ,.J 3 K  .b x e.k.f.g.f.f.] c I J ",
"< t 2.e.e.j.4.4.e.b.v.v.5.4.j.j.e.a.<.V.4.f.E &.b.N.f.B.m.N.y.b.v.c.&.| J < v &.x x v x C ] v &.| 6 ; 1 < ] 4.e.g.2.k.k.2.1.w.n ",
"r O   + + <  .g.j.2.4.&.e.v.g.j.k.d.d.d.w.e.i E y.x.N.x.m.S.z.N.c.z.f.&.C 9 4 x x L L W %.| L &...L l s L  . .5.6.f.g.k.f.&.&.r ",
"G Q Z 1 * X . 2 I '  . .d.d.A.e.4.f.d.c.c.b.S g l.y.l.l.y.c.u.z.d.v.l.-.t x t 6 J ] ] [ =.W L W ' &.L &.B.e.2.1...f.k.e.:.6.I < ",
"..3.:.6.s.` b w * > q y Z :.5.d.u.-.y.t.l.S.C 7 c.l.c.l.t.c.0.q.t.v.u.z x J J J ] ] 1.%.2.%.|  .H { v 6 k.g.e.4...I 4.6. .] t y ",
".._ ` ;.s.6.i.k.) y P c 1 y G $.u.r.y.l.l.7.R 7 0.B.b.b.t.q.4.%.j.e.h C J x A J ] %.g.f.$.| &.,.' T [ < A g.g.5.1.W &.f...Q t Q ",
"3.6.` ` s.3.p.3.I c 5.k.,.:.4.-.r.l.8.7.~ g / F =.F.b.b.v.a.e.W L ] W v 6 A | J J I 1.4.4.5.&.| w.;.1.E 1 n.j.b.g.&.[ 2. .L A 2.",
"o.s.3.:.3.{ :. .n { f.g.5.f.g.f.q.E v y B D ~ ~ D j.c.j.n.u.A 4 < Q Q L t L | ] ] K &.w.2.f.e.%.| 0.,.#.6  .k.g.j.&.P _ | c W s.",
"s.2.p.6.i.3.o._ G :.:.1.5.0.0.] K G  .[ &.' Z s ; w.w.f.j.Q H T C J L ] 6 v [ ] 1.%.1.5.&.2.j.e.-.&.-.Q v ; b Q K b H P | s [ d.",
"6.s.3.5.5.5.5.L 5.0.0.| ] v R ]  .} } } o.5.6.5.t C x.r.#.^ d *.w.u.| &.L 1 0.1.1.4.1.w.1.4.q.&.=.j.#.A C t 1 s l s I '  .s | 3.",
"5.6.d.6.j.6._ _ j.g.f.f.f.] ] k.} ) } 3.2.p.6.4.0.6 x F S O.Y -.4.q.-.j.1.4 x ] ] 1.1.w.1.2.q.&.F F C L Q A | &.e.:.d.d.2.p { :.",
"2.s.s.s.d._ z $.s.e.j.f.e.f.L  .s.2...6.3.2.d.h.q.,.a 1 C #.$.0.0...0.4.2.] ; ] L 4._ ;.a.a.X.G v ~ 3.&.1.Q | 1.4.#.8.t.d.y ;.5.",
";.e.s.s.&.G z 5.d.5.q.q.e.e.0.K &.d.2.k.d.,.d.t.e.$.v h ' W _ ;.g. .1.g.4.f.A a 1. .a.>.( z ` ` ;.4.j.j.5.e.1.1.-.O.' 8.C.G _ i.",
",.e.6.;.Q L Q 4.j.q.| e.k.q.j.f.A :.0.d.d.;.0.d.%.=.a J =.' ' ,.1.&.6.6.f.f.&.y ; u l > , j ( i.4.$.s.d.e.3.0.w.r.-.O.+.,.[ [ 3.",
":.5.;.' P Q q.d.a.v.e.k.Z.b.e.n.&.t ;.v.Z.q.<.w.u.f.f L t.,.=.+.Q 5.f.2.5.6.5.2.c r z m _ G ( >.i.{ ..o.e.2.e.u.u.l.r.8.w.L G 6.",
"2.Q H | -.4.d.j.j.j.B.f.b.n.b.f.u.H 4 ,.v.d.0.w.#.$./ ! *.S S z t H | | g.2.e.2.2.I 5.3.` j ` >.a.h.;.X.2.5.e.e.8.z.N.c.u.A W d.",
"' W P d.u.a.d.d.B.j.j.j.j.f.B.n.B.u.B h T D D ^ S C #.R D ! ~ E | 5.| 3.f.2.g.5.3. .[ o.>.j ( i.>.h.5.;.q.4.0.u.,.y.y.c.v.i v k.",
"H W $.d.j.v.j.0.b.D.B.B.f.b.g.B.b.u.' D l e F Q #.=.w.] d J / #.| $.' 2.j...g.k.6.>.>.2.i.l b i.3.>.:.{ g.q.4.u.t.y.u.r.#.C W | ",
"p ~ v.a.d.4.v.b.b.n.B.B.b.j.f.B.B.B./ z T +.4.u.*.u.u.f.@.S ! ! $.F L u.5.&.w.g.d.;.K 5.X.) > ;.i.3.>.I | 4.,.b.N.z.y.#.x #.j.4.",
"B 4 q.d.c.d.d.z.b.b.M.B.B.b.c.c.f.f.| 1.q.&.e.b.b.b.f.f.f.y.-.w.-.6 ^ g.f.f.6.n.0.G 2 I ;.i.0 w ` >.5.` ;.=.8.0.M.M.9.F z Q e.c.",
"a.l 8 z.d.u.0.c.u.j.b.M.n.n.b.b.f.f.E 5.b.5.5.k.k.B.b.b.x.u.7.r.D 4 | f.w.f.j.&.t s H G W I l y ( >.' _ ,.d.$.8.y.c./ D ~ -.1.=.",
"q.v.z 6 b.c.t.B.Z.M.b.b.x.c.N.b.b.w.v &.k.v.n.n.f.k.B.b.b.f.9.O.6 E f.f.w.w.J 6 z &.A.j.;.Q A 5 j >.X.' =.<.t.8.0.#.D z a.0.,.*.",
"<.q.d.e B t.A.v.b.f.b.S.b.j.M.x.w.1.J 5.j.k.k.k.k.k.j.b.c.f.u.F V f.j.0.E t 9 ] u.k.v.v.j.v.,.P w G ' ' t.t.r.t.=.E L H v.v.z.d.",
",.q.a.&., - H A.M.B.M.b.c.B.u.%.1.! A f.k.C.h.k.B.B.k.b.y.r.1.: -.j.| v t a &.k.e.e.v.d.k.d.5.5.&.2 v &.8.r.z.8.=.E ' t.4.d.<.V.",
"0.d.z.d.,.q o H B.A.B.j.c.b.c.b.b.%.%.b.k.A.n.k.k.n.b.F.u.0.#.@ | 4.4.q.] ..n.e.e.u.d.:.j.j.j.d.v.5.s t +.z.l.r.#.v W ,.$.k.a.d.",
"a.,.v.C.0.W 6 , t E M.B.j.B.b.7.] -.u.v.d.h.n.Z.n.f.f.f.=.#.N $ Q q...&.y _ n.s.6.h.j.3.u.j.d.d.d.d.d.C 7 ! -.$.F | d.>._ ;.a.d.",
"v.5.0.v.v.&.a | *.1 ! B.u.j.v.r.! -.j.v.v.d.k.B.g.1.1.%.7.0.S d &.%.' | q s p.s.s.s.d.d.v.a.k.q.e.v.z.q.~ 7 8 d ~ | $.5.a.i.a.d."
};
