/* XPM */
static char *_578398826832[] = {
/* columns rows colors chars-per-pixel */
"64 64 115 2 ",
"   c #3C2F1F",
".  c #3C2F26",
"X  c #42321E",
"o  c #52391D",
"O  c #443423",
"+  c #4E3D26",
"@  c #4D3C2B",
"#  c #5B3C24",
"$  c #523E2F",
"%  c #5C3B28",
"&  c #4D3D30",
"*  c #533E30",
"=  c #55412E",
"-  c #5C422E",
";  c #554333",
":  c #5A4532",
">  c #554835",
",  c #5C4A35",
"<  c #574539",
"1  c #5A4739",
"2  c #564938",
"3  c #5E4B3B",
"4  c #5F5039",
"5  c #614124",
"6  c #63452B",
"7  c #6B472A",
"8  c #644B2C",
"9  c #6C4B2D",
"0  c #734E2C",
"q  c #6D502E",
"w  c #75532F",
"e  c #644B34",
"r  c #6B4D35",
"t  c #634D3B",
"y  c #6A4E3A",
"u  c #714F34",
"i  c #605037",
"p  c #6D5335",
"a  c #65523C",
"s  c #6C543C",
"d  c #6C593D",
"f  c #735335",
"g  c #73553C",
"h  c #79563B",
"j  c #745A3D",
"k  c #7C5B3D",
"l  c #7C603E",
"z  c #655242",
"x  c #6C5542",
"c  c #6E5A43",
"v  c #685648",
"b  c #6E5A49",
"n  c #725642",
"m  c #7A5640",
"M  c #745B43",
"N  c #7B5D43",
"B  c #715748",
"V  c #755C49",
"C  c #795E49",
"Z  c #756144",
"A  c #7C6244",
"S  c #766249",
"D  c #7C634A",
"F  c #7E694D",
"G  c #805739",
"H  c #835D3E",
"J  c #895E3E",
"K  c #85623E",
"L  c #825E42",
"P  c #885F43",
"I  c #855F48",
"U  c #846344",
"Y  c #8A6544",
"T  c #856945",
"R  c #8C6A45",
"E  c #84654A",
"W  c #89664A",
"Q  c #856A4C",
"!  c #8C6B4C",
"~  c #936A44",
"^  c #916D4D",
"/  c #8E714E",
"(  c #92714D",
")  c #9B754F",
"_  c #826651",
"`  c #856C52",
"'  c #8B6D51",
"]  c #866B58",
"[  c #8A6F59",
"{  c #916E52",
"}  c #877152",
"|  c #8C7253",
" . c #8C7259",
".. c #937354",
"X. c #997554",
"o. c #937855",
"O. c #9C7A55",
"+. c #94755A",
"@. c #997659",
"#. c #947A5B",
"$. c #9A7A5C",
"%. c #A07349",
"&. c #A2784E",
"*. c #A17953",
"=. c #AC7F55",
"-. c #A27B5A",
";. c #8E7965",
":. c #937761",
">. c #947961",
",. c #997D61",
"<. c #A37E61",
"1. c #9A805F",
"2. c #B0855A",
"3. c #9C8261",
"4. c #A88162",
/* pixels */
"@ a s g g s a r y a p M N M j j j j M c M M M A S A Z S M d M S C M Z M S Z b a d x s s a d n d d M M s d i a a j n p s s a e = ",
"i N g l l K K K R K R X.~ ! / ! ( ! ! ! ! / / o.o.o.X.o./ T o.$.$.$.O.#.o. .} Q } / / ! | ' | ! ! *.| E | Q ! ......! ! Q H N d ",
"a b s p j l l U K ~ ( R R U R T T T T Q Q T Q / | ' Q Q A T Q / #. .o. .| | Q } Q ! T Q ' Q } Q R ( ! C T Q } } / / T T l f p 2 ",
"4 l j A Z U T R ( &.R k T A A A E ! Q A T E Q / / } / | A ) ! }  .} } Q Q } } ! } / / Q ` ' Q } ! .... .} S D } M T T K f 9 5 X ",
"4 c F T T U U T ( ^ h U H N ..T N A } A F / o.o.Q F A Q F X.U E #. .} |  .| | #.1.3.#.A E ` #.T O.) o.1.3.#. .} F T Q R l 9 9 = ",
"i F D A U T Y Y R R K H U Y T U U U Q ! T U T A A D D Q } Q A N Q Q Q o.|  .o. . .o. ./ E A ' j k R R ../  .o.o.} } o.} T Q T i ",
"p S F T U T R R R ( Y ~ R T ! ! ' ( ( / ( o.E A A E ' | o...} | Q  .|  . . .| ......| ../ l A k 0 K ( o.#.o.o.#.o.o.#./ F A F d ",
"= 4 a d d M A A A K A K K A A E F Q Q Q Q Q j 6 M F F } | ` Q Q E ` ` } } } ` Q ` } ` F F j 5 r - 9 j A E Q ` } } } ` F A d a a ",
"M M Z M M M N A N M A j l M Z M A M p j s s g a s j M M g j s > = s a g d j g M M Z M M s d y c s s M N A A M D A E Q Q ! E Q Q ",
"o./ / / Q / ! ! R ( ! ! ! ! ~ ( X.R U K K T l K U l l l p j Z , 2 D j k T / ! ! X...( ..| E ! ' ' | o.$.#.#./ W T } o.| o.( o.o.",
"/ T T F Q T Q T T T T T T T R ^ ! ~ %.K R K U A k j j s s d S a = i p f j l T T ! } / } | D D Q Q '  .#.| Q ! A A T ` } ! | ..} ",
"! T E Q E T T Q ! E A A A A U K g K 2.R ( ( T T A l Z l l d l i   o 7 q q K K K R l j  .Q D D } | | | ` o.A O.O.l / / / | } ! / ",
"o.o.R T A A } Q A N T / ! N h K U h ! ( ( R T U U T T T Q Z b i O - w 7 f T R / Q A F } } | #.1.,.o.o.#.} U ! O.T } Q A D Q T o.",
"E Q F E ! Q Q T U U U T T T U J K K Y R R Y Y R T T A k F S S i , Z T F T / | | } | } o.o.1.o.|  ./ } E N N A T } ` Q A U D A A ",
"T T o.) / / / ( / ( ! R R R Y ~ R J ( R ~ R ! R R T U A F Z F s , } F F F ` |  .o.o.o.| o.o.o.o.....' ! ! ! } o...o. ./ Q Q A N ",
", Z } T Q D Q F E F F A k A l J k l U l A A A M c s s d x a , @ , j > p M D Q ` } ` } } F F ` F F E D A D F Q Q ` ` F _ S F d 8 ",
"a y t t z x z B B n B x x c z n x x m B V n B V B n x x z t t B D B F E C C _ E D I E D D D C D S M C D B C C M n C C C C B m 1 ",
"f r N ' ^ W W ^ { ^ ..^ ^ ..X...X.{ ^ { ..{ ..@.@.@...X.^ ( X.O.....@.X.' { ' { { +.+.@.,.$.$.,.+.....' +.o.+...+.o.X.{ +.+...g ",
"y 6 r N E U I Y U P Y U H ~ ' { R W Y ^ ^ ' ..+.{ ^ { ~ ^ ^ { { ^ { { Y ^ { ' ' ' { { +.W { :.[ Y ! U h I #.+.@.+.+.+.' { { { y ",
"C 0 e m L m L m L L E I H L Y W { Y P R ! ! ' ' W ' ' ! ! ^ { ! ^ { ..! W ' +.[ W +.' W { [ L W ' L f f I :.:.[ +. .+.+.>.+.X.x ",
"W ^ r g E h H g L h Y L m Y ! ' Y E Y L ' ' ' ..{ L U E U I W W W ` E L E +.>.' { o.W { $.{ Y Y ' P W E ' { { E W _ W { +.{ W t ",
"C X.f h L I I I L G I Y E W W W W W ' I ^ { ..+.+.W L W U I ' W W W W W W W +.{ ..{ ..^ W W ^ Y Y W ' { { { { +.@.+.{ { { +.@.x ",
"t Y J L { { ~ U P P Y Y Y Y W ! ^ ' ! { ! { { ......^ ! W E _ ..{ ..@...{ @.$.$.@.@.X.^ ^ ^ { W ^ { { { ' { { +.{ @.{ +.+.{ @.x ",
"* t 6 $ % 6 e : e r g n h N N I I L U E L C E E W E L A m U Y _ ' ] ' W E W _ [ _ I C N g g g g h N N N n n y y y n C N C C I 1 ",
"z t 3 z t t y t t x B b n D C C V B C M C C n B n B x y y y n n ; E D E ' _ _ W E D N n B M C M D C C M C n t t t z B x x C D B ",
"@.@.{ +.X.X.^ { { X.+.X.....' ~ ' { ! { { [ W ^ ^ ^ W ' I u f y * { { { { +.{ ....+.+.o...+.$.....{ ..X.X.@.X...^ { ..{ @.+.X.$.",
"..' ^ { ' W Y Y R ^ ^ ! ~ W U L Y Y U P Y Y U L I I I m g % 9 y & ^ ' { { { ' { +.+.+.+.$.+.>._ L h k ! ! ' { ^ ^ ^ R { { ^ { ..",
"{ ! ' ! { Y P Y ^ W ^ Y P L J H L U U H Y h L L h L I m g % m C * +.+.>.>.+.:.@.+.+.+.] :.:.>.` h g u k W { { W ! ! W { { W ! ' ",
"' [ ! { Y L Y W I Y ! ' W Y m h U W G g P r k h m E L n r h X.` $ I ] { +.{ { E W ' ' E ' { { +.Y I W Y I ^ W L I W E Y L E ! { ",
"+.....{ Y I { W W W W W ! W Y E E Y L H I P U I E L G g h P <.n * +.{ +.+.^ { { { { { @.+.[ { { ^ [ ' W W ' W E m W E L U ' +.+.",
"{ { ! ! { { ^ ! { W ' W Y W Y Y Y Y P L I L U ^ { { Y G G P Y ; < +.{  .{ { +.{ ..+.{ +.+.{ { ! { { { { { { W U W W ! ' { ..X...",
"W E E C E I I E I E E I N L L m n h g r r e r r e e e e 6 r x 3 < N _ I C C C I m x x z y y s m B M E E E E N E N L L L U W ' W ",
"t E E C I I C B M C I N I E N m m m m h m m B M N C B N C E D E C m N n s g m M n s n s y g g g m g g h m g h g h h k m h h k a ",
"x @.{ { +...{ +.+.{ ' ! ' { ! ^ W ' ! ^ { @.*.$.,.$.@.X.{ >.+.{ +.' Y W W { ..X.X...{ ^ { { { { ! ! ^ R Y Y P L I Y ! W G G U 3 ",
"n +.+.{ ' { { { ..{ { ..' { Y Y Y ! ! W ^ ..' ....' _ W W Y W E Y ' L L W N W +.+.....! I W W W W W W I E P H J U Y I I h f O.I ",
"r _ ' +.{ W ' _ E { { [ C Y L ^ W W ..$.' W ..{ ' >.+.E I E ' W E W I U E W L ! ' ' ' W P Y W W ! W I h H E h L f m h E g u W _ ",
"n +.,.$.@.+.:.+.[ >.>.I g u L ' ' L ' ' W ' ..W  .[ [ R ! { { { { ^ ' ! ! ' ! ! ..' ' { R P R ! ! Y P J U U I L L L m I N r r N ",
"y ! { ' W { +.+.+.:.+.U k U W Y ' :.{ ' +.{ { { { ' { ^ W { ..^ { ..^ ~ ! { ' ^ ....{ ^ ^ Y W ^ ^ ' W P P Y U E Y I E W N y 6 r ",
"g ..{ +.X...+.$...+.+.o. .+...@.,.,.$.$.$.X.$.{ { { { { X.@...X.$.X...{ X.+.$.-.@.{ { ..{ ^ { { +...{ ! { { ^ ..! W ! W W N u y ",
"t N B C B n n s y x n n N M g C n x y t t x t z x n z t b D x z t < * * < $ < 1 x x x B V m x n B B C C B D V C V B B x x z n n ",
"E E Y E L h m m m N h L L E N m N B n g x n B C E E E E D _ E 1 & a y e 6 e r r n N N B N N C C I C _ ] _ ] ] ] _ ] _ ] [ ] [ ] ",
"@.{ X.{ ^ ^ ^ ' W ^ ^ ! ' { { ' W ^ { @.+.{ @...{ +.{ { +.{ +.n & I Y J H Y { ^ W Y I Y I I E W _ _ [  .[ [ +.+. .[ { [ :.:.:.:.",
"{ { { { ~ W W ^ W Y Y Y W ' ' { +.{ { { @.{ { ..{ { { ..+.{ +.z t <.R f u m I U I I I L J L Y Y I E ' _ E _ E E _ E ` ] [ [ [ +.",
"+.+.W ! +.@...W Y W { W H W U U { +.[ { I _ ' W E ' { +.{ [ W * n -.m r n N Y m h L r L h h _ U L N E _ E ' ] _ C D _  .;.;._ ] ",
"{ ..[ W ' ' [ E N ' { E N u r h E >.>.>.] +.:.:.+.@.+.:.,.+.+.y t I % r m m L m H L m U I U U Y I E ' W W ' [ { ' ' ` '  . .] ` ",
"{ { ^ +.+.! ' +.+.[ E Y ^ Y h L D +.:.+.:.+.{ @.{ ! { ^ { ! ^ e * f % y N I I I I U Y W U Y W ' W ! ' [ ' ' ' ! _ E ' ] ] ` [ [ ",
"..@.+.@.+.$.$.>.+.,.$.....X...+.+.@.o.{ ..o.@.@.@...{ { +.{ ..e - L e N ` I { ^ ! W { ..^ ! ..' ' { +.{ +.+.:.:.+.{ '  .[ [ +. .",
"M C C E C _ D E F D D n n M n s n s n M x n C n B C D F D n M 1 t n e t z t t t t z x n x B B x z x v x v x x b V b z z z v z z ",
"d z s A F } } } } } } ! D k q 5 r 8 j Q | | | | } }  . .| ` ` ` ! } |  . .Q F M 8 j | Q Q Q Q Q T W U K K K R T A A j j d c a = ",
"d _ F Q } o.| o.o.o.o.o.o.^ R w k A k R | | o.| | | | | | | ' Q ! / | ( } ' E A T T ( o./ / | / ! Y T R Y R R ~ R R T U A A A d ",
"i l E Q o./ } / } #.o.| / ! R k j | A T !  .#. .#.o.| | #.Q Q } M U ! } Q A D A A } T A Q ! U U Y Q T H H K R R K Y T T U D F i ",
"= 7 7 k T / A F } } o.3.1.o.O.O.Q #.} E A #.1.$.#.| | | } ` | #.Q U o.Q Q A Q Q ) o./ E A Q E N W / N H A k ) ( R T U U T F c t ",
"X - 9 w K R T Z  .D D ` } } ..! Q } | ` ! Q ! } } } } Q ' } }  .} / ) U / } | / / T E Q F T T E N A A Y j ^ *.R R U A l j c c i ",
", p f l T T ' / } Q F W A ! ( Q Q ' Q ' Q T ! ! } F /  ...o. .#.} ! A A T Q / | } T T T Q T T Q Q T R ! / ~ ~ R K A l k d p Z a ",
"d l l Q ! ! ..O...T T | T ' *.! T ' | ! ! / / } E ` |  .o.$.$.#.3.o.Q ! o.o.O.o.o./ o.! ! / R / ! / ! ~ X.R K K l K l k l g l 4 ",
", i p s d c c a e a t y a s k j c M j M M M A Z A F F E D M A F n a a d c M M M Z M Z M c l j g M g j Z j g s a p d M Z g d d : ",
" .| | } / Q M q 6 f 5 7 f k A } } } } | } | } } | Q F A d 4 c a @ a a c d j c Z l A A T T R T K T E ` Q E ` ` `  .|  .| | } | o.",
"| ..| ! | ! l j F j 9 J R ^ ( o...#...o.#.o.| o. .| } Q F F Q d , A Z D A U U T T R R R R ! Y K ~ ! ! Q Q ! | | } | |  . . .| } ",
"#. .o...Q T A } / g H K R Q | ..} ..#.o. .| | } } o./ T E T Z e : S S F A A U U R R K K R K T L H U U U Q } A Q $... .|  . .o. .",
"1.3.o.F U Q E #.} Q O.O.) O.$.3.1.#.} } } Q l F R T K k 6 0 5 + = Z c F T T T K T K / ( ) ( k h ~ h N T ( | } Q } } o.| |  .#.$.",
"/ ! Q Q Q / } ` ' } ! ../ } | } ' D Z Q  .Z l / T K K w 9 q o X = Z d j j k l A T A / ( Y 2.X.f T Y A U F E } / ' ' Q / } } Q } ",
"! Q T ! Q ! Q ` ` Q U ( ! ' U N ` Q D } } / | ! T Q T j f p d 2 > F d a d j j j A K K T K ~ R T ^ Y Q } o. ... .o.| | } Q } } ! ",
"| / o.! | | o. .| ! ! O.O.| T ' ! ! T ' o.X.X...../ / Q T h A d = A l j l K K K T K K R R K R ) ) ^ X.O.$.$.$.$.#.#.#. .| } ! / ",
"3 , : : , ; : , , : : t e t , 1 1 > ; - > : e , , - : - : = $ O . = : e , t t , : , = - - , , y a y a a 4 t t t i a a 3 a 3 > 2 "
};
